<svg xmlns="http://www.w3.org/2000/svg" width="24" height="24" viewBox="0 0 24 24" fill="none" stroke="white" stroke-width="1.8" stroke-linecap="round" stroke-linejoin="round">
  <path d="M17.3 5H6.7C3 5 2 7.5 2 11c0 3.8 1.4 8 3.5 8 1.8 0 2.5-2 3.5-4h6c1 2 1.7 4 3.5 4 2.1 0 3.5-4.2 3.5-8 0-3.5-1-6-4.7-6z"/>
  <path d="M6 12h4M8 10v4"/>
  <circle cx="15.5" cy="12.5" r="1.1" fill="white"/>
  <circle cx="17.5" cy="10.5" r="1.1" fill="white"/>
  <circle cx="9.5" cy="14" r="1" fill="white"/>
  <circle cx="14.5" cy="14" r="1" fill="white"/>
</svg>
